<svg xmlns="http://www.w3.org/2000/svg" width="16" height="16" fill="none" style=""><rect id="backgroundrect" width="100%" height="100%" x="0" y="0" fill="none" stroke="none" class="" style=""/>
  
<g class="currentLayer" style=""><title>Layer 1</title><path d="M15.6211,12.841773893332482 L11.9426,9.162973893332481 C12.5676,8.167933893332481 12.9303,6.991873893332482 12.9303,5.729743893332482 C12.9303,2.1589938933324815 10.0356,-0.7352941066675186 6.46503,-0.7352941066675186 C2.89442,-0.7352941066675186 0,2.1589938933324815 0,5.729743893332482 C0,9.300573893332482 2.8942900000000007,12.194673893332482 6.46503,12.194673893332482 C7.83856,12.194673893332482 9.1108,11.76517389333248 10.1577,11.035573893332481 L13.7924,14.670573893332481 C14.045,14.922873893332481 14.3761,15.048473893332481 14.7068,15.048473893332481 C15.0378,15.048473893332481 15.368500000000001,14.922873893332481 15.6215,14.670573893332481 C16.1262,14.16527389333248 16.1262,13.346873893332482 15.6211,12.841773893332482 zM6.46503,10.100073893332482 C4.05162,10.100073893332482 2.09498,8.14355389333248 2.09498,5.730003893332482 C2.09498,3.3164638933324815 4.05162,1.3598238933324813 6.46503,1.3598238933324813 C8.87858,1.3598238933324813 10.8351,3.3164638933324815 10.8351,5.730003893332482 C10.8351,8.14355389333248 8.87858,10.100073893332482 6.46503,10.100073893332482 z" fill="#242424" id="svg_1" class="selected" fill-opacity="1"/></g></svg>